<?xml version="1.0" encoding="UTF-8" standalone="no"?>
<svg
   xmlns:dc="http://purl.org/dc/elements/1.1/"
   xmlns:cc="http://creativecommons.org/ns#"
   xmlns:rdf="http://www.w3.org/1999/02/22-rdf-syntax-ns#"
   xmlns:svg="http://www.w3.org/2000/svg"
   xmlns="http://www.w3.org/2000/svg"
   xmlns:sodipodi="http://sodipodi.sourceforge.net/DTD/sodipodi-0.dtd"
   xmlns:inkscape="http://www.inkscape.org/namespaces/inkscape"
   width="159"
   height="43.02"
   version="1.1"
   id="svg8"
   sodipodi:docname="ag-logo--tr.svg"
   inkscape:version="0.92.4 (f8dce91, 2019-08-02)">
  <metadata
     id="metadata14">
    <rdf:RDF>
      <cc:Work
         rdf:about="">
        <dc:format>image/svg+xml</dc:format>
        <dc:type
           rdf:resource="http://purl.org/dc/dcmitype/StillImage" />
        <dc:title></dc:title>
      </cc:Work>
    </rdf:RDF>
  </metadata>
  <defs
     id="defs12" />
  <sodipodi:namedview
     pagecolor="#ffffff"
     bordercolor="#666666"
     borderopacity="1"
     objecttolerance="10"
     gridtolerance="10"
     guidetolerance="10"
     inkscape:pageopacity="0"
     inkscape:pageshadow="2"
     inkscape:window-width="1920"
     inkscape:window-height="982"
     id="namedview10"
     showgrid="false"
     inkscape:pagecheckerboard="true"
     inkscape:zoom="2.2012579"
     inkscape:cx="79.5"
     inkscape:cy="21.51"
     inkscape:window-x="0"
     inkscape:window-y="27"
     inkscape:window-maximized="1"
     inkscape:current-layer="a4" />
  <a
     transform="matrix(.95435 0 0 .83523 -1.126 51.521)"
     id="a4" />
  <path
     d="M.238 21.958V.258h5c3.331 0 5.002.418 5.005 1.25.011 2.74-8.317 40.313-9.132 41.2-.5.544-.873-8.336-.873-20.75zm10.375 18.175c.344-1.718.625-3.743.625-4.5 0-1.014 1.58-1.375 6.032-1.375 6.368 0 6.363-.004 7.357 5.75l.561 3.25h-15.2zm18.65-17.125c-2.388-11.137-4.544-20.812-4.79-21.5-.335-.934 1.6-1.25 7.658-1.25h8.107V19.93c0 16.9.233 19.928 1.655 21.5 1.583 1.748 1.437 1.828-3.317 1.828h-4.972zm35.32 18.422c1.341-1.482 1.655-4.044 1.655-13.5V16.258h-12v4c0 3.702.679 4.545 3.3 4.102.441-.074.666 2.46.5 5.632l-.3 5.766h-9v-34h9l.5 4c.473 3.783.7 4.017 4.193 4.307l3.693.307.307-4.807.307-4.807 46.25-.26 46.25-.26v43.02h-48.155c-46.588 0-48.1-.06-46.5-1.828zm89.155-19.672v-16l-40.75-.26-40.75-.262V38.28l40.75-.261 40.75-.262zm-73.3 9.3c-.66-.66-1.2-2.46-1.2-4 0-2.133.477-2.8 2-2.8 1.334 0 2 .667 2 2 0 1.111.667 2 1.5 2 .92 0 1.5-.936 1.5-2.422 0-1.888-.782-2.68-3.547-3.593l-2.772-1.588c-1.082-1.504-1.712-2.709-1.604-5.138-.034-1.567.46-3.171 1.84-4.686 1.129-.896 2.462-1.28 3.907-1.384 5.122-.365 7.391 1.166 6.977 4.717-.383 3.28-3.71 4.156-4.488 1.181-.748-2.859-3.313-2.661-3.313.255 0 1.866.814 2.585 4 3.54 3.806 1.14 4 1.394 4 5.224 0 6.02-1.385 7.894-5.835 7.894-2.07 0-4.305-.54-4.965-1.2zm16.19-.225c-.3-.785-.399-5.06-.218-9.503.29-7.15.128-8.076-1.422-8.074-1.084.001-1.75-.759-1.75-1.998 0-1.777.667-2 6-2 5.334 0 6 .223 6 2 0 1.334-.666 2-2 2-1.86 0-2 .667-2 9.5 0 8.883-.132 9.5-2.031 9.5-1.117 0-2.278-.641-2.579-1.425zm12.598.102c-.946-.6-1.573-3.097-1.774-10.758-.074-2.822-.021-5.697 1.001-8.989 1.25-1.887 2.353-2.046 3.69-2.105 5.604-.248 7.06 2.093 7.095 11.432.038 9.918-.902 11.748-5.785 11.728-2.043-.008-3.52-.86-4.227-1.308zm5.012-10.177c0-6-.3-7.5-1.5-7.5s-1.5 1.5-1.5 7.5.3 7.5 1.5 7.5 1.5-1.5 1.5-7.5zm7-.05c.766-10.258-1.73-11.767 5.75-11.25 4.819.825 5.256 2.047 6.052 6.699.166 3.519-.127 6.827-.651 7.35-.587.588-.607 2.161-.052 4.096 1.244 4.336 1.171 4.655-1.06 4.655-1.445 0-2.248-1.062-3.047-4.03-1.268-4.708-2.992-4.369-2.992.59 0 2.774-.387 3.44-2 3.44-1.884 0-2-.666-2-11.55zm8-3.95c0-2.833-.38-3.5-2-3.5-1.619 0-2 .667-2 3.5 0 2.834.381 3.5 2 3.5 1.62 0 2-.666 2-3.5zm7 4c.922-9.421-2.319-12.248 6-11.5 5.17-1.309 6 .223 6 2 0 1.667-.666 2-4 2-3.6 0-4 .25-4 2.5 0 2.111.467 2.5 3 2.5 2.334 0 3 .445 3 2 0 1.556-.666 2-3 2-2.666 0-3 .334-3 3 0 2.834.223 3 4 3 3.334 0 4 .334 4 2 0 1.778-.666 2-6 2h-6zm-122.417 2.75c2.227-12.403 3.263-17.429 3.68-17.846.528-.528 3.737 16.208 3.737 19.49 0 1.795-.598 2.106-4.045 2.106h-4.045z"
     style="fill:#000000"
     id="path6" />
</svg>
